<svg id="eQi5dK7BLea1" xmlns="http://www.w3.org/2000/svg" xmlns:xlink="http://www.w3.org/1999/xlink" viewBox="0 0 274 568" shape-rendering="geometricPrecision" text-rendering="geometricPrecision"><rect width="274" height="568" rx="10" ry="10" fill="#483eff"/><g mask="url(#eQi5dK7BLea9)"><g><path d="M-34.692,543.101C3.247,632.538,168.767,685.017,211.96,612.52c43.194-72.497-66.099-85.653-104.735-160.569C68.59,377.035,38.568,330.277,-17.257,347.344c-55.824,17.068-55.375,106.32-17.436,195.757Z" clip-rule="evenodd" fill="#6259ff" fill-rule="evenodd"/><path d="M233.095,601.153c60.679-28.278,92.839-143.526,41.875-171.528-50.965-28.003-57.397,47.579-108.059,75.987s-82.14,50.207-69.044,88.241s74.549,35.578,135.228,7.3Z" clip-rule="evenodd" fill="#7efb86" fill-rule="evenodd"/><path d="M165.305,469.097l10.607-10.806m33.549,16.29l-12.506-10.503m-9.395,24.913l-6.908,14.798" transform="matrix(0 1-1 0 603.789011 264.695026)" fill="none" stroke="#fff" stroke-width="5" stroke-linecap="round" stroke-linejoin="bevel"/><path d="M0.305,546.891c37.003,0,67-29.997,67-67s-29.997-67-67-67-67,29.997-67,67s29.997,67,67,67Z" fill="#e7b22c"/></g><mask id="eQi5dK7BLea9" mask-type="alpha" x="-150%" y="-150%" height="400%" width="400%"><rect width="274" height="568" rx="10" ry="10" fill="#fff"/></mask></g></svg>
